<svg xmlns="http://www.w3.org/2000/svg" xmlns:xlink="http://www.w3.org/1999/xlink" width="82" height="60" viewBox="0 0 82 60">
  <defs>
    <linearGradient id="linearGradient_1" x1="50%" x2="50%" y1="0%" y2="100%">
      <stop offset="0%" stop-color="#00A09D"/>
      <stop offset="100%" stop-color="#00E2FF"/>
    </linearGradient>
    <path id="path_2" d="M15 16v2H0v-2h15zm19 0v2H19v-2h15zm19 0v2H38v-2h15z"/>
    <filter id="filter_3" width="101.9%" height="200%" x="-.9%" y="-25%" filterUnits="objectBoundingBox">
      <feOffset dy="1" in="SourceAlpha" result="shadowOffsetOuter1"/>
      <feComposite in="shadowOffsetOuter1" in2="SourceAlpha" operator="out" result="shadowOffsetOuter1"/>
      <feColorMatrix in="shadowOffsetOuter1" values="0 0 0 0 1   0 0 0 0 1   0 0 0 0 1  0 0 0 0.292012675 0"/>
    </filter>
    <path id="path_4" d="M14 28v1H0v-1h14zm19 0v1H19v-1h14zm19 0v1H38v-1h14zm-41-3v1H0v-1h11zm19 0v1H19v-1h11zm19 0v1H38v-1h11zm-35-3v1H0v-1h14zm19 0v1H19v-1h14zm19 0v1H38v-1h14z"/>
    <filter id="filter_5" width="101.9%" height="128.6%" x="-1%" y="-7.1%" filterUnits="objectBoundingBox">
      <feOffset dy="1" in="SourceAlpha" result="shadowOffsetOuter1"/>
      <feComposite in="shadowOffsetOuter1" in2="SourceAlpha" operator="out" result="shadowOffsetOuter1"/>
      <feColorMatrix in="shadowOffsetOuter1" values="0 0 0 0 1   0 0 0 0 1   0 0 0 0 1  0 0 0 0.0995137675 0"/>
    </filter>
  </defs>
  <g fill="none" fill-rule="evenodd" class="snippets-thumbs">
    <g class="s-features">
      <rect width="82" height="60" class="bg"/>
      <g class="group" transform="translate(15 13)">
        <path fill="url(#linearGradient_1)" d="M7 0a6 6 0 1 1 0 12A6 6 0 0 1 7 0zm19 0a6 6 0 1 1 0 12 6 6 0 0 1 0-12zm19 0a6 6 0 1 1 0 12 6 6 0 0 1 0-12z" class="combined-shape"/>
        <g class="combined-shape">
          <use fill="#000" filter="url(#filter_3)" xlink:href="#path_2"/>
          <use fill="#FFF" fill-opacity=".78" xlink:href="#path_2"/>
        </g>
        <g class="combined-shape">
          <use fill="#000" filter="url(#filter_5)" xlink:href="#path_4"/>
          <use fill="#FFF" fill-opacity=".348" xlink:href="#path_4"/>
        </g>
      </g>
    </g>
  </g>
</svg>
