<svg xmlns="http://www.w3.org/2000/svg" xmlns:xlink="http://www.w3.org/1999/xlink" width="82" height="60" viewBox="0 0 82 60">
  <defs>
    <rect id="path_1" width="24.057" height="15.059" x="0" y="0"/>
    <linearGradient id="linearGradient_3" x1="72.875%" x2="40.332%" y1="47.367%" y2="38.122%">
      <stop offset="0%" stop-color="#008374"/>
      <stop offset="100%" stop-color="#006A59"/>
    </linearGradient>
    <linearGradient id="linearGradient_4" x1="88.517%" x2="50%" y1="46.899%" y2="50%">
      <stop offset="0%" stop-color="#00AA89"/>
      <stop offset="100%" stop-color="#009989"/>
    </linearGradient>
    <rect id="path_5" width="24.057" height="15.059" x="0" y="0"/>
    <rect id="path_7" width="12.5" height="9.535" x="0" y="0"/>
    <linearGradient id="linearGradient_9" x1="72.875%" x2="40.332%" y1="46.704%" y2="35.129%">
      <stop offset="0%" stop-color="#008374"/>
      <stop offset="100%" stop-color="#006A59"/>
    </linearGradient>
    <linearGradient id="linearGradient_10" x1="88.517%" x2="50%" y1="40.057%" y2="50%">
      <stop offset="0%" stop-color="#00AA89"/>
      <stop offset="100%" stop-color="#009989"/>
    </linearGradient>
    <rect id="path_11" width="12.5" height="10.488" x="0" y="0"/>
    <linearGradient id="linearGradient_13" x1="72.875%" x2="40.332%" y1="46.011%" y2="32.006%">
      <stop offset="0%" stop-color="#008374"/>
      <stop offset="100%" stop-color="#006A59"/>
    </linearGradient>
    <linearGradient id="linearGradient_14" x1="88.517%" x2="50%" y1="37.969%" y2="50%">
      <stop offset="0%" stop-color="#00AA89"/>
      <stop offset="100%" stop-color="#009989"/>
    </linearGradient>
  </defs>
  <g fill="none" fill-rule="evenodd" class="snippets-thumbs">
    <g class="s-images-all">
      <rect width="82" height="60" class="bg"/>
      <g class="group" transform="translate(21 13)">
        <g class="image-1-border">
          <rect width="25" height="16" fill="#FFF" class="rectangle"/>
          <g class="oval---oval-mask" transform="translate(.472 .47)">
            <mask id="mask_2" fill="#fff">
              <use xlink:href="#path_1"/>
            </mask>
            <use fill="#79D1F2" class="mask" xlink:href="#path_1"/>
            <ellipse cx="20.519" cy="4.394" fill="#F3EC60" class="oval" mask="url(#mask_2)" rx="2.594" ry="2.394"/>
            <ellipse cx="23.821" cy="16.706" fill="url(#linearGradient_3)" class="oval" mask="url(#mask_2)" rx="11.085" ry="5.882"/>
            <ellipse cx="-10.982" cy="16" fill="url(#linearGradient_4)" class="oval" mask="url(#mask_2)" rx="26.018" ry="8.471"/>
          </g>
          <path fill="#FFF" d="M25 0v16H0V0h25zm-.472.47H.472v15.06h24.056V.47z" class="rectangle-2"/>
        </g>
        <g class="image-1-border" transform="translate(15 18)">
          <rect width="25" height="16" fill="#FFF" class="rectangle"/>
          <g class="oval---oval-mask" transform="translate(.472 .47)">
            <mask id="mask_6" fill="#fff">
              <use xlink:href="#path_5"/>
            </mask>
            <use fill="#79D1F2" class="mask" xlink:href="#path_5"/>
            <ellipse cx="20.519" cy="4.394" fill="#F3EC60" class="oval" mask="url(#mask_6)" rx="2.594" ry="2.394"/>
            <ellipse cx="23.821" cy="16.706" fill="url(#linearGradient_3)" class="oval" mask="url(#mask_6)" rx="11.085" ry="5.882"/>
            <ellipse cx="-10.982" cy="16" fill="url(#linearGradient_4)" class="oval" mask="url(#mask_6)" rx="26.018" ry="8.471"/>
          </g>
          <path fill="#FFF" d="M25 0v16H0V0h25zm-.472.47H.472v15.06h24.056V.47z" class="rectangle-2"/>
        </g>
        <g class="image-1-border" transform="translate(27)">
          <rect width="13" height="10" fill="#FFF" class="rectangle"/>
          <g class="oval---oval-mask" transform="translate(.25 .233)">
            <mask id="mask_8" fill="#fff">
              <use xlink:href="#path_7"/>
            </mask>
            <use fill="#79D1F2" class="mask" xlink:href="#path_7"/>
            <ellipse cx="9.625" cy="2.442" fill="#F3EC60" class="oval" mask="url(#mask_8)" rx="1.875" ry="1.744"/>
            <ellipse cx="12.625" cy="10.465" fill="url(#linearGradient_9)" class="oval" mask="url(#mask_8)" rx="5.875" ry="3.488"/>
            <ellipse cx=".125" cy="10.581" fill="url(#linearGradient_10)" class="oval" mask="url(#mask_8)" rx="9.375" ry="5.465"/>
          </g>
          <path fill="#FFF" d="M13 0v10H0V0h13zm-1 1H1v8h11V1z" class="rectangle-2"/>
        </g>
        <g class="image-1-border" transform="translate(0 18)">
          <rect width="13" height="11" fill="#FFF" class="rectangle"/>
          <g class="oval---oval-mask" transform="translate(.25 .256)">
            <mask id="mask_12" fill="#fff">
              <use xlink:href="#path_11"/>
            </mask>
            <use fill="#79D1F2" class="mask" xlink:href="#path_11"/>
            <ellipse cx="9.625" cy="2.686" fill="#F3EC60" class="oval" mask="url(#mask_12)" rx="1.875" ry="1.919"/>
            <ellipse cx="12.625" cy="11.512" fill="url(#linearGradient_13)" class="oval" mask="url(#mask_12)" rx="5.875" ry="3.837"/>
            <ellipse cx=".125" cy="11.64" fill="url(#linearGradient_14)" class="oval" mask="url(#mask_12)" rx="9.375" ry="6.012"/>
          </g>
          <path fill="#FFF" d="M13 0v11H0V0h13zm-1 1H1v9h11V1z" class="rectangle-2"/>
        </g>
      </g>
    </g>
  </g>
</svg>
