<svg xmlns="http://www.w3.org/2000/svg" xmlns:xlink="http://www.w3.org/1999/xlink" width="82" height="60" viewBox="0 0 82 60">
  <defs>
    <rect id="path_1" width="37" height="2" x="0" y="0"/>
    <filter id="filter_2" width="102.7%" height="200%" x="-1.4%" y="-25%" filterUnits="objectBoundingBox">
      <feOffset dy="1" in="SourceAlpha" result="shadowOffsetOuter1"/>
      <feComposite in="shadowOffsetOuter1" in2="SourceAlpha" operator="out" result="shadowOffsetOuter1"/>
      <feColorMatrix in="shadowOffsetOuter1" values="0 0 0 0 1   0 0 0 0 1   0 0 0 0 1  0 0 0 0.292012675 0"/>
    </filter>
    <path id="path_3" d="M17 27.813V29H0v-1.188h17zm0-5.938v1.188H0v-1.188h17zm0-5.938v1.188H0v-1.188h17zM17 10v1.188H0V10h17z"/>
    <filter id="filter_4" width="105.9%" height="110.5%" x="-2.9%" y="-2.6%" filterUnits="objectBoundingBox">
      <feOffset dy="1" in="SourceAlpha" result="shadowOffsetOuter1"/>
      <feComposite in="shadowOffsetOuter1" in2="SourceAlpha" operator="out" result="shadowOffsetOuter1"/>
      <feColorMatrix in="shadowOffsetOuter1" values="0 0 0 0 1   0 0 0 0 1   0 0 0 0 1  0 0 0 0.0995137675 0"/>
    </filter>
    <path id="path_5" d="M24 27.813V29h-2v-1.188h2zm0-5.938v1.188h-2v-1.188h2zm0-5.938v1.188h-2v-1.188h2zM24 10v1.188h-2V10h2z"/>
    <filter id="filter_6" width="150%" height="110.5%" x="-25%" y="-2.6%" filterUnits="objectBoundingBox">
      <feOffset dy="1" in="SourceAlpha" result="shadowOffsetOuter1"/>
      <feComposite in="shadowOffsetOuter1" in2="SourceAlpha" operator="out" result="shadowOffsetOuter1"/>
      <feColorMatrix in="shadowOffsetOuter1" values="0 0 0 0 1   0 0 0 0 1   0 0 0 0 1  0 0 0 0.4 0"/>
    </filter>
    <path id="path_7" d="M51 27.813V29H34v-1.188h17zm0-5.938v1.188H34v-1.188h17zm0-5.938v1.188H34v-1.188h17zM51 10v1.188H34V10h17z"/>
    <filter id="filter_8" width="105.9%" height="110.5%" x="-2.9%" y="-2.6%" filterUnits="objectBoundingBox">
      <feOffset dy="1" in="SourceAlpha" result="shadowOffsetOuter1"/>
      <feComposite in="shadowOffsetOuter1" in2="SourceAlpha" operator="out" result="shadowOffsetOuter1"/>
      <feColorMatrix in="shadowOffsetOuter1" values="0 0 0 0 1   0 0 0 0 1   0 0 0 0 1  0 0 0 0.0995137675 0"/>
    </filter>
    <path id="path_9" d="M58 27.813V29h-2v-1.188h2zm0-5.938v1.188h-2v-1.188h2zm0-5.938v1.188h-2v-1.188h2zM58 10v1.188h-2V10h2z"/>
    <filter id="filter_10" width="150%" height="110.5%" x="-25%" y="-2.6%" filterUnits="objectBoundingBox">
      <feOffset dy="1" in="SourceAlpha" result="shadowOffsetOuter1"/>
      <feComposite in="shadowOffsetOuter1" in2="SourceAlpha" operator="out" result="shadowOffsetOuter1"/>
      <feColorMatrix in="shadowOffsetOuter1" values="0 0 0 0 1   0 0 0 0 1   0 0 0 0 1  0 0 0 0.4 0"/>
    </filter>
  </defs>
  <g fill="none" fill-rule="evenodd" class="snippets-thumbs">
    <g class="s-product-catalog">
      <rect width="82" height="60" class="bg"/>
      <g class="group" transform="translate(12 15)">
        <g class="combined-shape">
          <use fill="#000" filter="url(#filter_2)" xlink:href="#path_1"/>
          <use fill="#FFF" fill-opacity=".78" xlink:href="#path_1"/>
        </g>
        <g class="combined-shape">
          <use fill="#000" filter="url(#filter_4)" xlink:href="#path_3"/>
          <use fill="#FFF" fill-opacity=".348" xlink:href="#path_3"/>
        </g>
        <g class="combined-shape">
          <use fill="#000" filter="url(#filter_6)" xlink:href="#path_5"/>
          <use fill="#FFF" fill-opacity=".95" xlink:href="#path_5"/>
        </g>
        <g class="combined-shape">
          <use fill="#000" filter="url(#filter_8)" xlink:href="#path_7"/>
          <use fill="#FFF" fill-opacity=".348" xlink:href="#path_7"/>
        </g>
        <g class="combined-shape">
          <use fill="#000" filter="url(#filter_10)" xlink:href="#path_9"/>
          <use fill="#FFF" fill-opacity=".95" xlink:href="#path_9"/>
        </g>
      </g>
    </g>
  </g>
</svg>
