<svg xmlns="http://www.w3.org/2000/svg" xmlns:xlink="http://www.w3.org/1999/xlink" width="82" height="60" viewBox="0 0 82 60">
  <defs>
    <rect id="path_1" width="14.423" height="11.442" x="0" y="0"/>
    <linearGradient id="linearGradient_3" x1="72.875%" x2="40.332%" y1="46.435%" y2="33.916%">
      <stop offset="0%" stop-color="#008374"/>
      <stop offset="100%" stop-color="#006A59"/>
    </linearGradient>
    <linearGradient id="linearGradient_4" x1="88.517%" x2="50%" y1="39.246%" y2="50%">
      <stop offset="0%" stop-color="#00AA89"/>
      <stop offset="100%" stop-color="#009989"/>
    </linearGradient>
    <rect id="path_5" width="15.385" height="11.442" x="0" y="0"/>
    <linearGradient id="linearGradient_7" x1="72.875%" x2="40.332%" y1="46.866%" y2="35.864%">
      <stop offset="0%" stop-color="#008374"/>
      <stop offset="100%" stop-color="#006A59"/>
    </linearGradient>
    <linearGradient id="linearGradient_8" x1="88.517%" x2="50%" y1="40.548%" y2="50%">
      <stop offset="0%" stop-color="#00AA89"/>
      <stop offset="100%" stop-color="#009989"/>
    </linearGradient>
    <rect id="path_9" width="14.423" height="11.442" x="0" y="0"/>
    <path id="path_11" d="M15 16v2H0v-2h15zm19 0v2H19v-2h15zm19 0v2H38v-2h15z"/>
    <filter id="filter_12" width="101.9%" height="200%" x="-.9%" y="-25%" filterUnits="objectBoundingBox">
      <feOffset dy="1" in="SourceAlpha" result="shadowOffsetOuter1"/>
      <feComposite in="shadowOffsetOuter1" in2="SourceAlpha" operator="out" result="shadowOffsetOuter1"/>
      <feColorMatrix in="shadowOffsetOuter1" values="0 0 0 0 1   0 0 0 0 1   0 0 0 0 1  0 0 0 0.292012675 0"/>
    </filter>
    <path id="path_13" d="M33 28v1H19v-1h14zm-3-3v1H19v-1h11zm3-3v1H19v-1h14z"/>
    <filter id="filter_14" width="107.1%" height="128.6%" x="-3.6%" y="-7.1%" filterUnits="objectBoundingBox">
      <feOffset dy="1" in="SourceAlpha" result="shadowOffsetOuter1"/>
      <feComposite in="shadowOffsetOuter1" in2="SourceAlpha" operator="out" result="shadowOffsetOuter1"/>
      <feColorMatrix in="shadowOffsetOuter1" values="0 0 0 0 1   0 0 0 0 1   0 0 0 0 1  0 0 0 0.0995137675 0"/>
    </filter>
    <path id="path_15" d="M52 28v1H38v-1h14zm-3-3v1H38v-1h11zm3-3v1H38v-1h14z"/>
    <filter id="filter_16" width="107.1%" height="128.6%" x="-3.6%" y="-7.1%" filterUnits="objectBoundingBox">
      <feOffset dy="1" in="SourceAlpha" result="shadowOffsetOuter1"/>
      <feComposite in="shadowOffsetOuter1" in2="SourceAlpha" operator="out" result="shadowOffsetOuter1"/>
      <feColorMatrix in="shadowOffsetOuter1" values="0 0 0 0 1   0 0 0 0 1   0 0 0 0 1  0 0 0 0.0995137675 0"/>
    </filter>
    <path id="path_17" d="M14 28v1H0v-1h14zm-3-3v1H0v-1h11zm3-3v1H0v-1h14z"/>
    <filter id="filter_18" width="107.1%" height="128.6%" x="-3.6%" y="-7.1%" filterUnits="objectBoundingBox">
      <feOffset dy="1" in="SourceAlpha" result="shadowOffsetOuter1"/>
      <feComposite in="shadowOffsetOuter1" in2="SourceAlpha" operator="out" result="shadowOffsetOuter1"/>
      <feColorMatrix in="shadowOffsetOuter1" values="0 0 0 0 1   0 0 0 0 1   0 0 0 0 1  0 0 0 0.0995137675 0"/>
    </filter>
  </defs>
  <g fill="none" fill-rule="evenodd" class="snippets-thumbs">
    <g class="s-three-columns">
      <rect width="82" height="60" class="bg"/>
      <g class="group" transform="translate(15 16)">
        <g class="image-1-border">
          <rect width="15" height="12" fill="#FFF" class="rectangle"/>
          <g class="oval---oval-mask" transform="translate(.288 .28)">
            <mask id="mask_2" fill="#fff">
              <use xlink:href="#path_1"/>
            </mask>
            <use fill="#79D1F2" class="mask" xlink:href="#path_1"/>
            <ellipse cx="11.106" cy="2.93" fill="#F3EC60" class="oval" mask="url(#mask_2)" rx="2.163" ry="2.093"/>
            <ellipse cx="14.567" cy="12.558" fill="url(#linearGradient_3)" class="oval" mask="url(#mask_2)" rx="6.779" ry="4.186"/>
            <ellipse cx=".144" cy="12.698" fill="url(#linearGradient_4)" class="oval" mask="url(#mask_2)" rx="10.817" ry="6.558"/>
          </g>
          <path fill="#FFF" d="M15 0v12H0V0h15zm-1 1H1v10h13V1z" class="rectangle-2"/>
        </g>
        <g class="image-1-border" transform="translate(18)">
          <rect width="16" height="12" fill="#FFF" class="rectangle"/>
          <g class="oval---oval-mask" transform="translate(.308 .28)">
            <mask id="mask_6" fill="#fff">
              <use xlink:href="#path_5"/>
            </mask>
            <use fill="#79D1F2" class="mask" xlink:href="#path_5"/>
            <ellipse cx="11.846" cy="2.93" fill="#F3EC60" class="oval" mask="url(#mask_6)" rx="2.308" ry="2.093"/>
            <ellipse cx="15.538" cy="12.558" fill="url(#linearGradient_7)" class="oval" mask="url(#mask_6)" rx="7.231" ry="4.186"/>
            <ellipse cx=".154" cy="12.698" fill="url(#linearGradient_8)" class="oval" mask="url(#mask_6)" rx="11.538" ry="6.558"/>
          </g>
          <path fill="#FFF" d="M16 0v12H0V0h16zm-1 1H1v10h14V1z" class="rectangle-2"/>
        </g>
        <g class="image-1-border" transform="translate(38)">
          <rect width="15" height="12" fill="#FFF" class="rectangle"/>
          <g class="oval---oval-mask" transform="translate(.288 .28)">
            <mask id="mask_10" fill="#fff">
              <use xlink:href="#path_9"/>
            </mask>
            <use fill="#79D1F2" class="mask" xlink:href="#path_9"/>
            <ellipse cx="11.106" cy="2.93" fill="#F3EC60" class="oval" mask="url(#mask_10)" rx="2.163" ry="2.093"/>
            <ellipse cx="14.567" cy="12.558" fill="url(#linearGradient_3)" class="oval" mask="url(#mask_10)" rx="6.779" ry="4.186"/>
            <ellipse cx=".144" cy="12.698" fill="url(#linearGradient_4)" class="oval" mask="url(#mask_10)" rx="10.817" ry="6.558"/>
          </g>
          <path fill="#FFF" d="M15 0v12H0V0h15zm-1 1H1v10h13V1z" class="rectangle-2"/>
        </g>
        <g class="combined-shape">
          <use fill="#000" filter="url(#filter_12)" xlink:href="#path_11"/>
          <use fill="#FFF" fill-opacity=".78" xlink:href="#path_11"/>
        </g>
        <g class="combined-shape">
          <use fill="#000" filter="url(#filter_14)" xlink:href="#path_13"/>
          <use fill="#FFF" fill-opacity=".348" xlink:href="#path_13"/>
        </g>
        <g class="combined-shape">
          <use fill="#000" filter="url(#filter_16)" xlink:href="#path_15"/>
          <use fill="#FFF" fill-opacity=".348" xlink:href="#path_15"/>
        </g>
        <g class="combined-shape">
          <use fill="#000" filter="url(#filter_18)" xlink:href="#path_17"/>
          <use fill="#FFF" fill-opacity=".348" xlink:href="#path_17"/>
        </g>
      </g>
    </g>
  </g>
</svg>
